Comme-Medium.ufo
<glyph name="numbersign" format="1">
  <advance width="1149"/>
  <unicode hex="0023"/>
  <outline>
    <contour>
      <point x="397" y="546" type="line"/>
      <point x="483" y="979" type="line"/>
      <point x="763" y="979" type="line"/>
      <point x="678" y="546" type="line"/>
    </contour>
    <contour>
      <point x="165" y="-14" type="line"/>
      <point x="288" y="-14" type="line"/>
      <point x="377" y="441" type="line"/>
      <point x="657" y="441" type="line"/>
      <point x="569" y="-14" type="line"/>
      <point x="690" y="-14" type="line"/>
      <point x="780" y="441" type="line"/>
      <point x="992" y="441" type="line"/>
      <point x="1008" y="546" type="line"/>
      <point x="801" y="546" type="line"/>
      <point x="885" y="979" type="line"/>
      <point x="1083" y="979" type="line"/>
      <point x="1100" y="1083" type="line"/>
      <point x="905" y="1083" type="line"/>
      <point x="998" y="1533" type="line"/>
      <point x="877" y="1533" type="line"/>
      <point x="783" y="1083" type="line"/>
      <point x="503" y="1083" type="line"/>
      <point x="596" y="1533" type="line"/>
      <point x="472" y="1533" type="line"/>
      <point x="379" y="1083" type="line"/>
      <point x="178" y="1083" type="line"/>
      <point x="164" y="979" type="line"/>
      <point x="359" y="979" type="line"/>
      <point x="274" y="546" type="line"/>
      <point x="79" y="546" type="line"/>
      <point x="65" y="441" type="line"/>
      <point x="254" y="441" type="line"/>
    </contour>
  </outline>
</glyph>
<glyph name="dollar" format="1">
  <advance width="1223"/>
  <unicode hex="0024"/>
  <outline>
    <component base="S"/>
    <contour>
      <point x="545" y="46" type="line"/>
      <point x="545" y="-293" type="line"/>
      <point x="677" y="-293" type="line"/>
      <point x="686" y="46" type="line"/>
    </contour>
    <contour>
      <point x="556" y="1767" type="line"/>
      <point x="543" y="1429" type="line"/>
      <point x="690" y="1429" type="line"/>
      <point x="690" y="1767" type="line"/>
    </contour>
  </outline>
</glyph>
<glyph name="percent" format="1">
  <advance width="1744"/>
  <unicode hex="0025"/>
  <outline>
    <contour>
      <point x="1272" y="-11" type="curve" smooth="yes"/>
      <point x="1503" y="-11"/>
      <point x="1606" y="160"/>
      <point x="1606" y="381" type="curve" smooth="yes"/>
      <point x="1606" y="605"/>
      <point x="1506" y="770"/>
      <point x="1272" y="770" type="curve" smooth="yes"/>
      <point x="1043" y="770"/>
      <point x="940" y="601"/>
      <point x="940" y="381" type="curve" smooth="yes"/>
      <point x="940" y="160"/>
      <point x="1039" y="-11"/>
    </contour>
    <contour>
      <point x="1274" y="111" type="curve" smooth="yes"/>
      <point x="1129" y="111"/>
      <point x="1087" y="227"/>
      <point x="1087" y="382" type="curve" smooth="yes"/>
      <point x="1087" y="533"/>
      <point x="1129" y="649"/>
      <point x="1274" y="649" type="curve" smooth="yes"/>
      <point x="1418" y="649"/>
      <point x="1460" y="539"/>
      <point x="1460" y="382" type="curve" smooth="yes"/>
      <point x="1460" y="231"/>
      <point x="1419" y="111"/>
    </contour>
    <contour>
      <point x="340" y="0" type="line"/>
      <point x="504" y="0" type="line"/>
      <point x="1331" y="1476" type="line"/>
      <point x="1177" y="1476" type="line"/>
    </contour>
    <contour>
      <point x="401" y="716" type="curve" smooth="yes"/>
      <point x="632" y="716"/>
      <point x="735" y="887"/>
      <point x="735" y="1107" type="curve" smooth="yes"/>
      <point x="735" y="1331"/>
      <point x="635" y="1496"/>
      <point x="401" y="1496" type="curve" smooth="yes"/>
      <point x="172" y="1496"/>
      <point x="77" y="1328"/>
      <point x="77" y="1107" type="curve" smooth="yes"/>
      <point x="77" y="887"/>
      <point x="168" y="716"/>
    </contour>
    <contour>
      <point x="403" y="838" type="curve" smooth="yes"/>
      <point x="258" y="838"/>
      <point x="216" y="953"/>
      <point x="216" y="1109" type="curve" smooth="yes"/>
      <point x="216" y="1260"/>
      <point x="258" y="1375"/>
      <point x="403" y="1375" type="curve" smooth="yes"/>
      <point x="547" y="1375"/>
      <point x="589" y="1265"/>
      <point x="589" y="1109" type="curve" smooth="yes"/>
      <point x="589" y="957"/>
      <point x="548" y="838"/>
    </contour>
  </outline>
</glyph>
<glyph name="nine" format="1">
  <advance width="1284"/>
  <unicode hex="0039"/>
  <outline>
    <contour>
      <point x="953" y="1013" type="curve" smooth="yes"/>
      <point x="953" y="793"/>
      <point x="790" y="713"/>
      <point x="659" y="713" type="curve" smooth="yes"/>
      <point x="480" y="713"/>
      <point x="385" y="842"/>
      <point x="385" y="1013" type="curve" smooth="yes"/>
      <point x="385" y="1177"/>
      <point x="491" y="1312"/>
      <point x="671" y="1312" type="curve" smooth="yes"/>
      <point x="851" y="1312"/>
      <point x="953" y="1176"/>
    </contour>
    <contour>
      <point x="347" y="0" type="line"/>
      <point x="583" y="0" type="line"/>
      <point x="954" y="488" type="line" smooth="yes"/>
      <point x="1082" y="655"/>
      <point x="1168" y="797"/>
      <point x="1168" y="1003" type="curve" smooth="yes"/>
      <point x="1168" y="1258"/>
      <point x="987" y="1476"/>
      <point x="671" y="1476" type="curve" smooth="yes"/>
      <point x="368" y="1476"/>
      <point x="169" y="1278"/>
      <point x="169" y="1014" type="curve" smooth="yes"/>
      <point x="169" y="733"/>
      <point x="368" y="563"/>
      <point x="598" y="563" type="curve" smooth="yes"/>
      <point x="675" y="563"/>
      <point x="755" y="586"/>
      <point x="819" y="625" type="curve"/>
      <point x="663" y="423"/>
      <point x="504" y="224"/>
      <point x="347" y="24" type="curve"/>
    </contour>
  </outline>
</glyph>
<glyph name="semicolon" format="1">
  <advance width="725"/>
  <unicode hex="003B"/>
  <outline>
    <contour>
      <point x="375" y="823" type="curve" smooth="yes"/>
      <point x="461" y="823"/>
      <point x="508" y="882"/>
      <point x="508" y="956" type="curve" smooth="yes"/>
      <point x="508" y="1030"/>
      <point x="461" y="1091"/>
      <point x="375" y="1091" type="curve" smooth="yes"/>
      <point x="289" y="1091"/>
      <point x="240" y="1030"/>
      <point x="240" y="956" type="curve" smooth="yes"/>
      <point x="240" y="881"/>
      <point x="291" y="823"/>
    </contour>
    <contour>
      <point x="239" y="-314" type="curve"/>
      <point x="367" y="-314" type="line"/>
      <point x="485" y="139" type="line"/>
      <point x="485" y="248" type="line"/>
      <point x="279" y="248" type="line"/>
      <point x="279" y="230"/>
      <point x="239" y="-314"/>
    </contour>
  </outline>
</glyph>
<glyph name="C" format="1">
  <advance width="1465"/>
  <unicode hex="0043"/>
  <outline>
    <contour>
      <point x="805" y="1" type="move" name="bot"/>
    </contour>
    <contour>
      <point x="796" y="1456" type="move" name="top"/>
    </contour>
    <contour>
      <point x="1370" y="1083" type="line"/>
      <point x="1320" y="1320"/>
      <point x="1093" y="1477"/>
      <point x="811" y="1477" type="curve" smooth="yes"/>
      <point x="408" y="1477"/>
      <point x="145" y="1206"/>
      <point x="145" y="730" type="curve" smooth="yes"/>
      <point x="145" y="251"/>
      <point x="408" y="-19"/>
      <point x="811" y="-19" type="curve" smooth="yes"/>
      <point x="1096" y="-19"/>
      <point x="1323" y="136"/>
      <point x="1373" y="374" type="curve"/>
      <point x="1205" y="438" type="line"/>
      <point x="1187" y="438" type="line"/>
      <point x="1151" y="281"/>
      <point x="1008" y="155"/>
      <point x="822" y="155" type="curve" smooth="yes"/>
      <point x="561" y="155"/>
      <point x="385" y="339"/>
      <point x="385" y="730" type="curve" smooth="yes"/>
      <point x="385" y="1122"/>
      <point x="558" y="1302"/>
      <point x="830" y="1302" type="curve" smooth="yes"/>
      <point x="1012" y="1302"/>
      <point x="1149" y="1173"/>
      <point x="1184" y="1019" type="curve"/>
      <point x="1202" y="1019" type="line"/>
    </contour>
  </outline>
</glyph>
<glyph name="D" format="1">
  <advance width="1511"/>
  <unicode hex="0044"/>
  <outline>
    <contour>
      <point x="777" y="-1" type="move" name="bot"/>
    </contour>
    <contour>
      <point x="756" y="1456" type="move" name="top"/>
    </contour>
    <contour>
      <point x="197" y="10" type="line"/>
      <point x="310" y="-4"/>
      <point x="414" y="-10"/>
      <point x="508" y="-10" type="curve" smooth="yes"/>
      <point x="1155" y="-10"/>
      <point x="1366" y="298"/>
      <point x="1366" y="748" type="curve" smooth="yes"/>
      <point x="1366" y="1194"/>
      <point x="1202" y="1463"/>
      <point x="572" y="1463" type="curve" smooth="yes"/>
      <point x="462" y="1463"/>
      <point x="337" y="1455"/>
      <point x="197" y="1438" type="curve"/>
    </contour>
    <contour>
      <point x="428" y="159" type="curve"/>
      <point x="428" y="1293" type="line"/>
      <point x="490" y="1299"/>
      <point x="547" y="1302"/>
      <point x="599" y="1302" type="curve" smooth="yes"/>
      <point x="1047" y="1302"/>
      <point x="1137" y="1079"/>
      <point x="1137" y="743" type="curve" smooth="yes"/>
      <point x="1137" y="396"/>
      <point x="1021" y="153"/>
      <point x="566" y="153" type="curve" smooth="yes"/>
      <point x="523" y="153"/>
      <point x="477" y="155"/>
    </contour>
  </outline>
</glyph>
<glyph name="E" format="1">
  <advance width="1320"/>
  <unicode hex="0045"/>
  <outline>
    <contour>
      <point x="700" y="0" type="move" name="bot"/>
    </contour>
    <contour>
      <point x="742" y="1456" type="move" name="top"/>
    </contour>
    <contour>
      <point x="197" y="1456" type="line"/>
      <point x="197" y="0" type="line"/>
      <point x="1179" y="0" type="line"/>
      <point x="1189" y="171" type="line"/>
      <point x="428" y="171" type="line"/>
      <point x="428" y="668" type="line"/>
      <point x="1113" y="668" type="line"/>
      <point x="1113" y="836" type="line"/>
      <point x="428" y="836" type="line"/>
      <point x="428" y="1289" type="line"/>
      <point x="1163" y="1289" type="line"/>
      <point x="1173" y="1456" type="line"/>
    </contour>
  </outline>
</glyph>
<glyph name="G" format="1">
  <advance width="1501"/>
  <unicode hex="0047"/>
  <outline>
    <contour>
      <point x="796" y="1" type="move" name="bot"/>
    </contour>
    <contour>
      <point x="806" y="1456" type="move" name="top"/>
    </contour>
    <contour>
      <point x="826" y="-20" type="curve" smooth="yes"/>
      <point x="1035" y="-20"/>
      <point x="1205" y="13"/>
      <point x="1355" y="75" type="curve"/>
      <point x="1355" y="780" type="line"/>
      <point x="838" y="780" type="line"/>
      <point x="829" y="629" type="line"/>
      <point x="1151" y="607" type="line"/>
      <point x="1151" y="195" type="line"/>
      <point x="1084" y="174"/>
      <point x="989" y="154"/>
      <point x="865" y="154" type="curve" smooth="yes"/>
      <point x="530" y="154"/>
      <point x="385" y="360"/>
      <point x="385" y="735" type="curve" smooth="yes"/>
      <point x="385" y="1086"/>
      <point x="546" y="1302"/>
      <point x="859" y="1302" type="curve" smooth="yes"/>
      <point x="1039" y="1302"/>
      <point x="1153" y="1217"/>
      <point x="1213" y="1139" type="curve"/>
      <point x="1232" y="1139" type="line"/>
      <point x="1359" y="1251" type="line"/>
      <point x="1274" y="1380"/>
      <point x="1095" y="1476"/>
      <point x="847" y="1476" type="curve" smooth="yes"/>
      <point x="406" y="1476"/>
      <point x="145" y="1191"/>
      <point x="145" y="734" type="curve" smooth="yes"/>
      <point x="145" y="279"/>
      <point x="378" y="-20"/>
    </contour>
  </outline>
</glyph>
<glyph name="I" format="1">
  <advance width="989"/>
  <unicode hex="0049"/>
  <outline>
    <contour>
      <point x="492" y="1456" type="move" name="top"/>
    </contour>
    <contour>
      <point x="177" y="1456" type="line"/>
      <point x="177" y="1321" type="line"/>
      <point x="376" y="1321" type="line"/>
      <point x="376" y="134" type="line"/>
      <point x="177" y="134" type="line"/>
      <point x="177" y="-2" type="line"/>
      <point x="804" y="-2" type="line"/>
      <point x="804" y="134" type="line"/>
      <point x="608" y="134" type="line"/>
      <point x="608" y="1321" type="line"/>
      <point x="804" y="1321" type="line"/>
      <point x="804" y="1456" type="line"/>
    </contour>
  </outline>
</glyph>
<glyph name="L" format="1">
  <advance width="1124"/>
  <unicode hex="004C"/>
  <outline>
    <contour>
      <point x="619" y="0" type="move" name="bot"/>
    </contour>
    <contour>
      <point x="429" y="1456" type="move" name="top"/>
    </contour>
    <contour>
      <point x="197" y="1456" type="line"/>
      <point x="197" y="0" type="line"/>
      <point x="1109" y="0" type="line"/>
      <point x="1118" y="165" type="line"/>
      <point x="428" y="165" type="line"/>
      <point x="428" y="1456" type="line"/>
    </contour>
  </outline>
</glyph>
<glyph name="M" format="1">
  <advance width="1833"/>
  <unicode hex="004D"/>
  <outline>
    <contour>
      <point x="928" y="1456" type="move" name="top"/>
    </contour>
    <contour>
      <point x="177" y="-2" type="line"/>
      <point x="395" y="-2" type="line"/>
      <point x="395" y="494" type="line"/>
      <point x="403" y="1139" type="line"/>
      <point x="829" y="186" type="line"/>
      <point x="1001" y="186" type="line"/>
      <point x="1431" y="1131" type="line"/>
      <point x="1439" y="497" type="line"/>
      <point x="1439" y="-2" type="line"/>
      <point x="1656" y="-2" type="line"/>
      <point x="1656" y="513" type="line"/>
      <point x="1633" y="1456" type="line"/>
      <point x="1377" y="1456" type="line"/>
      <point x="919" y="450" type="line"/>
      <point x="463" y="1456" type="line"/>
      <point x="201" y="1456" type="line"/>
      <point x="177" y="510" type="line"/>
    </contour>
  </outline>
</glyph>
<glyph name="N" format="1">
  <advance width="1547"/>
  <unicode hex="004E"/>
  <outline>
    <contour>
      <point x="775" y="0" type="move" name="bot"/>
    </contour>
    <contour>
      <point x="783" y="1456" type="move" name="top"/>
    </contour>
    <contour>
      <point x="1139" y="1456" type="line"/>
      <point x="1139" y="715" type="line"/>
      <point x="1151" y="305" type="line"/>
      <point x="424" y="1456" type="line"/>
      <point x="197" y="1456" type="line"/>
      <point x="197" y="0" type="line"/>
      <point x="412" y="0" type="line"/>
      <point x="412" y="698" type="line"/>
      <point x="395" y="1133" type="line"/>
      <point x="1114" y="0" type="line"/>
      <point x="1350" y="0" type="line"/>
      <point x="1350" y="1456" type="line"/>
    </contour>
  </outline>
</glyph>
<glyph name="R" format="1">
  <advance width="1372"/>
  <unicode hex="0052"/>
  <outline>
    <contour>
      <point x="723" y="0" type="move" name="bot"/>
    </contour>
    <contour>
      <point x="719" y="1456" type="move" name="top"/>
    </contour>
    <contour>
      <point x="1262" y="1063" type="curve" smooth="yes"/>
      <point x="1262" y="1356"/>
      <point x="1105" y="1467"/>
      <point x="673" y="1467" type="curve" smooth="yes"/>
      <point x="541" y="1467"/>
      <point x="384" y="1457"/>
      <point x="197" y="1438" type="curve"/>
      <point x="197" y="0" type="line"/>
      <point x="428" y="0" type="line"/>
      <point x="428" y="651" type="line"/>
      <point x="729" y="652" type="line"/>
      <point x="1060" y="0" type="line"/>
      <point x="1308" y="0" type="line"/>
      <point x="1308" y="19" type="line"/>
      <point x="961" y="679" type="line"/>
      <point x="1140" y="726"/>
      <point x="1262" y="838"/>
    </contour>
    <contour>
      <point x="428" y="1293" type="line"/>
      <point x="524" y="1301"/>
      <point x="607" y="1305"/>
      <point x="677" y="1305" type="curve" smooth="yes"/>
      <point x="969" y="1305"/>
      <point x="1050" y="1230"/>
      <point x="1050" y="1064" type="curve" smooth="yes"/>
      <point x="1050" y="876"/>
      <point x="973" y="803"/>
      <point x="671" y="803" type="curve" smooth="yes"/>
      <point x="428" y="803" type="line"/>
    </contour>
  </outline>
</glyph>
<glyph name="S" format="1">
  <advance width="1223"/>
  <unicode hex="0053"/>
  <outline>
    <contour>
      <point x="620" y="0" type="move" name="bot"/>
    </contour>
    <contour>
      <point x="620" y="1471" type="move" name="top"/>
    </contour>
    <contour>
      <point x="886" y="387" type="curve" smooth="yes"/>
      <point x="886" y="219"/>
      <point x="764" y="157"/>
      <point x="598" y="157" type="curve" smooth="yes"/>
      <point x="471" y="157"/>
      <point x="339" y="212"/>
      <point x="253" y="300" type="curve"/>
      <point x="236" y="300" type="line"/>
      <point x="105" y="184" type="line"/>
      <point x="186" y="80"/>
      <point x="358" y="-20"/>
      <point x="602" y="-20" type="curve" smooth="yes"/>
      <point x="859" y="-20"/>
      <point x="1111" y="90"/>
      <point x="1111" y="390" type="curve" smooth="yes"/>
      <point x="1111" y="649"/>
      <point x="974" y="724"/>
      <point x="742" y="817" type="curve" smooth="yes"/>
      <point x="544" y="896" type="line"/>
      <point x="390" y="960"/>
      <point x="342" y="995"/>
      <point x="342" y="1103" type="curve" smooth="yes"/>
      <point x="342" y="1257"/>
      <point x="469" y="1305"/>
      <point x="616" y="1305" type="curve" smooth="yes"/>
      <point x="747" y="1305"/>
      <point x="868" y="1255"/>
      <point x="936" y="1164" type="curve"/>
      <point x="953" y="1164" type="line"/>
      <point x="1086" y="1272" type="line"/>
      <point x="997" y="1389"/>
      <point x="829" y="1476"/>
      <point x="617" y="1476" type="curve" smooth="yes"/>
      <point x="353" y="1476"/>
      <point x="112" y="1385"/>
      <point x="112" y="1075" type="curve" smooth="yes"/>
      <point x="112" y="868"/>
      <point x="227" y="800"/>
      <point x="420" y="721" type="curve"/>
      <point x="627" y="635" type="line" smooth="yes"/>
      <point x="828" y="552"/>
      <point x="886" y="512"/>
    </contour>
  </outline>
</glyph>
<glyph name="T" format="1">
  <advance width="1175"/>
  <unicode hex="0054"/>
  <outline>
    <contour>
      <point x="592" y="0" type="move" name="bot"/>
    </contour>
    <contour>
      <point x="592" y="1456" type="move" name="top"/>
    </contour>
    <contour>
      <point x="13" y="1456" type="line"/>
      <point x="13" y="1291" type="line"/>
      <point x="471" y="1291" type="line"/>
      <point x="471" y="-2" type="line"/>
      <point x="703" y="-2" type="line"/>
      <point x="703" y="1291" type="line"/>
      <point x="1162" y="1291" type="line"/>
      <point x="1162" y="1456" type="line"/>
    </contour>
  </outline>
</glyph>
<glyph name="W" format="1">
  <advance width="1993"/>
  <unicode hex="0057"/>
  <outline>
    <contour>
      <point x="998" y="0" type="move" name="bot"/>
    </contour>
    <contour>
      <point x="1006" y="1456" type="move" name="top"/>
    </contour>
    <contour>
      <point x="1003" y="1148" type="line"/>
      <point x="1325" y="0" type="line"/>
      <point x="1543" y="0" type="line"/>
      <point x="1921" y="1456" type="line"/>
      <point x="1697" y="1456" type="line"/>
      <point x="1430" y="295" type="line"/>
      <point x="1105" y="1432" type="line"/>
      <point x="899" y="1432" type="line"/>
      <point x="573" y="304" type="line"/>
      <point x="284" y="1456" type="line"/>
      <point x="72" y="1456" type="line"/>
      <point x="451" y="0" type="line"/>
      <point x="667" y="0" type="line"/>
    </contour>
  </outline>
</glyph>
<glyph name="Z" format="1">
  <advance width="1205"/>
  <unicode hex="005A"/>
  <outline>
    <contour>
      <point x="639" y="0" type="move" name="bot"/>
    </contour>
    <contour>
      <point x="661" y="1456" type="move" name="top"/>
    </contour>
    <contour>
      <point x="95" y="0" type="line"/>
      <point x="1137" y="0" type="line"/>
      <point x="1139" y="165" type="line"/>
      <point x="362" y="165" type="line"/>
      <point x="1129" y="1308" type="line"/>
      <point x="1124" y="1456" type="line"/>
      <point x="121" y="1456" type="line"/>
      <point x="126" y="1292" type="line"/>
      <point x="873" y="1292" type="line"/>
      <point x="95" y="146" type="line"/>
    </contour>
  </outline>
</glyph>
<glyph name="a" format="1">
  <advance width="1129"/>
  <unicode hex="0061"/>
  <outline>
    <contour>
      <point x="525" y="1" type="move" name="bot"/>
    </contour>
    <contour>
      <point x="562" y="1083" type="move" name="top"/>
    </contour>
    <contour>
      <point x="494" y="123" type="curve" smooth="yes"/>
      <point x="393" y="123"/>
      <point x="309" y="171"/>
      <point x="309" y="296" type="curve" smooth="yes"/>
      <point x="309" y="420"/>
      <point x="388" y="478"/>
      <point x="589" y="478" type="curve" smooth="yes"/>
      <point x="771" y="477" type="line"/>
      <point x="771" y="252" type="line"/>
      <point x="710" y="178"/>
      <point x="618" y="123"/>
    </contour>
    <contour>
      <point x="107" y="296" type="curve" smooth="yes"/>
      <point x="107" y="83"/>
      <point x="248" y="-19"/>
      <point x="454" y="-19" type="curve" smooth="yes"/>
      <point x="605" y="-19"/>
      <point x="711" y="32"/>
      <point x="794" y="128" type="curve"/>
      <point x="812" y="0" type="line"/>
      <point x="986" y="0" type="line"/>
      <point x="986" y="691" type="line" smooth="yes"/>
      <point x="986" y="992"/>
      <point x="810" y="1105"/>
      <point x="564" y="1105" type="curve" smooth="yes"/>
      <point x="419" y="1105"/>
      <point x="264" y="1070"/>
      <point x="146" y="999" type="curve"/>
      <point x="201" y="847" type="line"/>
      <point x="308" y="913"/>
      <point x="446" y="945"/>
      <point x="547" y="945" type="curve" smooth="yes"/>
      <point x="695" y="945"/>
      <point x="771" y="877"/>
      <point x="771" y="716" type="curve" smooth="yes"/>
      <point x="771" y="601" type="line"/>
      <point x="557" y="604" type="line"/>
      <point x="549" y="604" type="line" smooth="yes"/>
      <point x="264" y="604"/>
      <point x="107" y="502"/>
    </contour>
  </outline>
</glyph>
<glyph name="d" format="1">
  <advance width="1216"/>
  <unicode hex="0064"/>
  <outline>
    <contour>
      <point x="1109" y="1180" type="move" name="caron.alt"/>
    </contour>
    <contour>
      <point x="518" y="1082" type="move" name="top"/>
    </contour>
    <contour>
      <point x="600" y="134" type="curve" smooth="yes"/>
      <point x="420" y="134"/>
      <point x="329" y="275"/>
      <point x="329" y="544" type="curve" smooth="yes"/>
      <point x="329" y="814"/>
      <point x="425" y="951"/>
      <point x="602" y="951" type="curve" smooth="yes"/>
      <point x="712" y="951"/>
      <point x="803" y="908"/>
      <point x="855" y="835" type="curve"/>
      <point x="855" y="245" type="line"/>
      <point x="797" y="171"/>
      <point x="706" y="134"/>
    </contour>
    <contour>
      <point x="567" y="-20" type="curve" smooth="yes"/>
      <point x="688" y="-20"/>
      <point x="801" y="37"/>
      <point x="872" y="134" type="curve"/>
      <point x="882" y="0" type="line"/>
      <point x="1071" y="0" type="line"/>
      <point x="1071" y="1560" type="line"/>
      <point x="850" y="1540" type="line"/>
      <point x="850" y="1150" type="line"/>
      <point x="855" y="989" type="line"/>
      <point x="796" y="1054"/>
      <point x="704" y="1103"/>
      <point x="577" y="1103" type="curve" smooth="yes"/>
      <point x="572" y="1103" type="line"/>
      <point x="568" y="1103" type="line" smooth="yes"/>
      <point x="275" y="1103"/>
      <point x="107" y="879"/>
      <point x="107" y="542" type="curve" smooth="yes"/>
      <point x="107" y="212"/>
      <point x="266" y="-20"/>
    </contour>
  </outline>
</glyph>
<glyph name="e" format="1">
  <advance width="1148"/>
  <unicode hex="0065"/>
  <outline>
    <contour>
      <point x="631" y="1" type="move" name="bot"/>
    </contour>
    <contour>
      <point x="620" y="1082" type="move" name="top"/>
    </contour>
    <contour>
      <point x="330" y="626" type="line"/>
      <point x="347" y="832"/>
      <point x="460" y="952"/>
      <point x="622" y="952" type="curve" smooth="yes"/>
      <point x="783" y="952"/>
      <point x="859" y="837"/>
      <point x="861" y="626" type="curve"/>
    </contour>
    <contour>
      <point x="1036" y="494" type="line"/>
      <point x="1036" y="494"/>
      <point x="1046" y="567"/>
      <point x="1046" y="607" type="curve" smooth="yes"/>
      <point x="1046" y="911"/>
      <point x="894" y="1105"/>
      <point x="612" y="1105" type="curve" smooth="yes"/>
      <point x="327" y="1105"/>
      <point x="106" y="896"/>
      <point x="106" y="539" type="curve" smooth="yes"/>
      <point x="106" y="192"/>
      <point x="332" y="-20"/>
      <point x="637" y="-20" type="curve" smooth="yes"/>
      <point x="796" y="-20"/>
      <point x="931" y="27"/>
      <point x="1019" y="92" type="curve"/>
      <point x="970" y="224" type="line"/>
      <point x="957" y="224" type="line"/>
      <point x="868" y="173"/>
      <point x="785" y="134"/>
      <point x="664" y="134" type="curve" smooth="yes"/>
      <point x="480" y="134"/>
      <point x="343" y="244"/>
      <point x="327" y="494" type="curve"/>
    </contour>
  </outline>
</glyph>
<glyph name="f" format="1">
  <advance width="777"/>
  <unicode hex="0066"/>
  <outline>
    <contour>
      <point x="405" y="1456" type="move" name="top"/>
    </contour>
    <contour>
      <point x="459" y="1082" type="line"/>
      <point x="459" y="1161" type="line" smooth="yes"/>
      <point x="459" y="1325"/>
      <point x="498" y="1365"/>
      <point x="631" y="1365" type="curve" smooth="yes"/>
      <point x="666" y="1365"/>
      <point x="725" y="1359"/>
      <point x="743" y="1357" type="curve"/>
      <point x="754" y="1498" type="line"/>
      <point x="746" y="1500"/>
      <point x="675" y="1518"/>
      <point x="577" y="1518" type="curve" smooth="yes"/>
      <point x="567" y="1518" type="line" smooth="yes"/>
      <point x="367" y="1518"/>
      <point x="241" y="1456"/>
      <point x="241" y="1161" type="curve" smooth="yes"/>
      <point x="241" y="1079" type="line"/>
      <point x="66" y="1063" type="line"/>
      <point x="61" y="952" type="line"/>
      <point x="241" y="952" type="line"/>
      <point x="241" y="0" type="line"/>
      <point x="459" y="0" type="line"/>
      <point x="459" y="952" type="line"/>
      <point x="731" y="952" type="line"/>
      <point x="731" y="1082" type="line"/>
    </contour>
  </outline>
</glyph>
<glyph name="h" format="1">
  <advance width="1222"/>
  <unicode hex="0068"/>
  <outline>
    <contour>
      <point x="640" y="1422" type="move" name="top"/>
    </contour>
    <contour>
      <point x="161" y="0" type="line"/>
      <point x="378" y="0" type="line"/>
      <point x="378" y="601" type="line" smooth="yes"/>
      <point x="378" y="787"/>
      <point x="452" y="951"/>
      <point x="662" y="951" type="curve" smooth="yes"/>
      <point x="805" y="951"/>
      <point x="861" y="858"/>
      <point x="861" y="654" type="curve" smooth="yes"/>
      <point x="861" y="0" type="line"/>
      <point x="1080" y="0" type="line"/>
      <point x="1080" y="671" type="line" smooth="yes"/>
      <point x="1080" y="946"/>
      <point x="956" y="1105"/>
      <point x="721" y="1105" type="curve" smooth="yes"/>
      <point x="560" y="1105"/>
      <point x="440" y="1035"/>
      <point x="372" y="876" type="curve"/>
      <point x="379" y="1150" type="line"/>
      <point x="379" y="1560" type="line"/>
      <point x="161" y="1540" type="line"/>
    </contour>
  </outline>
</glyph>
<glyph name="l" format="1">
  <advance width="662"/>
  <unicode hex="006C"/>
  <outline>
    <contour>
      <point x="338" y="1513" type="move" name="top"/>
    </contour>
    <contour>
      <point x="500" y="-9" type="line"/>
      <point x="576" y="-8" type="line"/>
      <point x="590" y="143" type="line"/>
      <point x="511" y="148" type="line" smooth="yes"/>
      <point x="399" y="156"/>
      <point x="379" y="176"/>
      <point x="379" y="315" type="curve" smooth="yes"/>
      <point x="379" y="1560" type="line"/>
      <point x="162" y="1540" type="line"/>
      <point x="162" y="320" type="line" smooth="yes"/>
      <point x="162" y="56"/>
      <point x="266" y="-9"/>
      <point x="485" y="-9" type="curve" smooth="yes"/>
    </contour>
  </outline>
</glyph>
<glyph name="p" format="1">
  <advance width="1224"/>
  <unicode hex="0070"/>
  <outline>
    <contour>
      <point x="665" y="1082" type="move" name="top"/>
    </contour>
    <contour>
      <point x="631" y="134" type="curve" smooth="yes"/>
      <point x="520" y="134"/>
      <point x="429" y="176"/>
      <point x="369" y="258" type="curve"/>
      <point x="369" y="610" type="line"/>
      <point x="377" y="813"/>
      <point x="460" y="951"/>
      <point x="649" y="951" type="curve" smooth="yes"/>
      <point x="829" y="951"/>
      <point x="896" y="795"/>
      <point x="896" y="543" type="curve" smooth="yes"/>
      <point x="896" y="273"/>
      <point x="807" y="134"/>
    </contour>
    <contour>
      <point x="158" y="-462" type="line"/>
      <point x="374" y="-462" type="line"/>
      <point x="374" y="-65" type="line"/>
      <point x="369" y="92" type="line"/>
      <point x="432" y="25"/>
      <point x="530" y="-20"/>
      <point x="663" y="-20" type="curve" smooth="yes"/>
      <point x="949" y="-20"/>
      <point x="1117" y="212"/>
      <point x="1117" y="542" type="curve" smooth="yes"/>
      <point x="1117" y="874"/>
      <point x="980" y="1105"/>
      <point x="688" y="1105" type="curve" smooth="yes"/>
      <point x="522" y="1105"/>
      <point x="410" y="1015"/>
      <point x="359" y="865" type="curve"/>
      <point x="344" y="1082" type="line"/>
      <point x="158" y="1082" type="line"/>
    </contour>
  </outline>
</glyph>
<glyph name="r" format="1">
  <advance width="797"/>
  <unicode hex="0072"/>
  <outline>
    <contour>
      <point x="305" y="0" type="move" name="bot"/>
    </contour>
    <contour>
      <point x="452" y="1082" type="move" name="top"/>
    </contour>
    <contour>
      <point x="157" y="0" type="line"/>
      <point x="374" y="0" type="line"/>
      <point x="374" y="613" type="line" smooth="yes"/>
      <point x="374" y="788"/>
      <point x="483" y="922"/>
      <point x="681" y="922" type="curve" smooth="yes"/>
      <point x="690" y="922" type="line"/>
      <point x="733" y="920" type="line"/>
      <point x="749" y="1087" type="line"/>
      <point x="717" y="1093"/>
      <point x="687" y="1094"/>
      <point x="658" y="1094" type="curve" smooth="yes"/>
      <point x="541" y="1094"/>
      <point x="428" y="1036"/>
      <point x="356" y="868" type="curve"/>
      <point x="338" y="1082" type="line"/>
      <point x="157" y="1082" type="line"/>
    </contour>
  </outline>
</glyph>
<glyph name="t" format="1">
  <advance width="818"/>
  <unicode hex="0074"/>
  <outline>
    <contour>
      <point x="484" y="0" type="move" name="bot"/>
    </contour>
    <contour>
      <point x="353" y="1367" type="move" name="top"/>
    </contour>
    <contour>
      <point x="596" y="-9" type="curve"/>
      <point x="719" y="-7" type="line"/>
      <point x="727" y="142" type="line"/>
      <point x="609" y="147" type="line"/>
      <point x="456" y="152"/>
      <point x="440" y="188"/>
      <point x="440" y="348" type="curve" smooth="yes"/>
      <point x="440" y="952" type="line"/>
      <point x="728" y="952" type="line"/>
      <point x="728" y="1082" type="line"/>
      <point x="440" y="1082" type="line"/>
      <point x="440" y="1392" type="line"/>
      <point x="255" y="1378" type="line"/>
      <point x="229" y="1082" type="line"/>
      <point x="60" y="1071" type="line"/>
      <point x="55" y="952" type="line"/>
      <point x="224" y="952" type="line"/>
      <point x="224" y="351" type="line" smooth="yes"/>
      <point x="224" y="88"/>
      <point x="273" y="-9"/>
    </contour>
  </outline>
</glyph>
<glyph name="u" format="1">
  <advance width="1218"/>
  <unicode hex="0075"/>
  <outline>
    <contour>
      <point x="580" y="1" type="move" name="bot"/>
    </contour>
    <contour>
      <point x="620" y="1083" type="move" name="top"/>
    </contour>
    <contour>
      <point x="844" y="266" type="line"/>
      <point x="804" y="214"/>
      <point x="726" y="132"/>
      <point x="573" y="132" type="curve" smooth="yes"/>
      <point x="419" y="132"/>
      <point x="360" y="230"/>
      <point x="360" y="417" type="curve" smooth="yes"/>
      <point x="360" y="1082" type="line"/>
      <point x="143" y="1082" type="line"/>
      <point x="143" y="405" type="line" smooth="yes"/>
      <point x="143" y="125"/>
      <point x="275" y="-20"/>
      <point x="528" y="-20" type="curve" smooth="yes"/>
      <point x="689" y="-20"/>
      <point x="793" y="47"/>
      <point x="862" y="139" type="curve"/>
      <point x="873" y="0" type="line"/>
      <point x="1061" y="0" type="line"/>
      <point x="1061" y="1082" type="line"/>
      <point x="844" y="1082" type="line"/>
    </contour>
  </outline>
</glyph>
<glyph name="x" format="1">
  <advance width="1066"/>
  <unicode hex="0078"/>
  <outline>
    <contour>
      <point x="655" y="549" type="line"/>
      <point x="1015" y="1082" type="line"/>
      <point x="802" y="1082" type="line"/>
      <point x="551" y="705" type="line"/>
      <point x="299" y="1082" type="line"/>
      <point x="62" y="1082" type="line"/>
      <point x="419" y="547" type="line"/>
      <point x="41" y="-2" type="line"/>
      <point x="255" y="-2" type="line"/>
      <point x="523" y="391" type="line"/>
      <point x="785" y="-2" type="line"/>
      <point x="1023" y="-2" type="line"/>
    </contour>
  </outline>
</glyph>
<glyph name="z" format="1">
  <advance width="1001"/>
  <unicode hex="007A"/>
  <outline>
    <contour>
      <point x="487" y="0" type="move" name="bot"/>
    </contour>
    <contour>
      <point x="504" y="1082" type="move" name="top"/>
    </contour>
    <contour>
      <point x="111" y="1082" type="line"/>
      <point x="114" y="936" type="line"/>
      <point x="661" y="936" type="line"/>
      <point x="94" y="127" type="line"/>
      <point x="94" y="0" type="line"/>
      <point x="903" y="0" type="line"/>
      <point x="899" y="153" type="line"/>
      <point x="337" y="153" type="line"/>
      <point x="891" y="945" type="line"/>
      <point x="891" y="1082" type="line"/>
    </contour>
  </outline>
</glyph>
<glyph name="asciitilde" format="1">
  <advance width="1192"/>
  <unicode hex="007E"/>
  <outline>
    <contour>
      <point x="152" y="485" type="line"/>
      <point x="196" y="569"/>
      <point x="271" y="641"/>
      <point x="358" y="641" type="curve" smooth="yes"/>
      <point x="428" y="641"/>
      <point x="497" y="609"/>
      <point x="591" y="566" type="curve" smooth="yes"/>
      <point x="675" y="527"/>
      <point x="747" y="498"/>
      <point x="824" y="498" type="curve" smooth="yes"/>
      <point x="953" y="498"/>
      <point x="1044" y="581"/>
      <point x="1093" y="698" type="curve"/>
      <point x="1035" y="804" type="line"/>
      <point x="984" y="716"/>
      <point x="909" y="653"/>
      <point x="830" y="653" type="curve" smooth="yes"/>
      <point x="772" y="653"/>
      <point x="696" y="689"/>
      <point x="604" y="729" type="curve" smooth="yes"/>
      <point x="509" y="772"/>
      <point x="443" y="796"/>
      <point x="363" y="796" type="curve" smooth="yes"/>
      <point x="229" y="796"/>
      <point x="143" y="708"/>
      <point x="96" y="599" type="curve"/>
    </contour>
  </outline>
</glyph>
<glyph name="guillemotleft" format="1">
  <advance width="1009"/>
  <unicode hex="00AB"/>
  <outline>
    <contour>
      <point x="741" y="143" type="line"/>
      <point x="906" y="143" type="line"/>
      <point x="637" y="558" type="line"/>
      <point x="912" y="971" type="line"/>
      <point x="743" y="971" type="line"/>
      <point x="448" y="555" type="line"/>
    </contour>
    <contour>
      <point x="366" y="143" type="line"/>
      <point x="532" y="143" type="line"/>
      <point x="263" y="558" type="line"/>
      <point x="539" y="971" type="line"/>
      <point x="370" y="971" type="line"/>
      <point x="73" y="555" type="line"/>
    </contour>
  </outline>
</glyph>
<glyph name="uni00AD" format="1">
  <advance width="916"/>
  <unicode hex="00AD"/>
  <outline>
    <contour>
      <point x="124" y="413" type="line"/>
      <point x="789" y="413" type="line"/>
      <point x="789" y="574" type="line"/>
      <point x="124" y="574" type="line"/>
    </contour>
  </outline>
</glyph>
<glyph name="degree" format="1">
  <advance width="866"/>
  <unicode hex="00B0"/>
  <outline>
    <contour>
      <point x="428" y="892" type="curve" smooth="yes"/>
      <point x="603" y="892"/>
      <point x="733" y="1027"/>
      <point x="733" y="1192" type="curve" smooth="yes"/>
      <point x="733" y="1362"/>
      <point x="599" y="1486"/>
      <point x="428" y="1486" type="curve" smooth="yes"/>
      <point x="258" y="1486"/>
      <point x="124" y="1362"/>
      <point x="124" y="1192" type="curve" smooth="yes"/>
      <point x="124" y="1021"/>
      <point x="257" y="892"/>
    </contour>
    <contour>
      <point x="428" y="1005" type="curve" smooth="yes"/>
      <point x="330" y="1005"/>
      <point x="250" y="1078"/>
      <point x="250" y="1191" type="curve" smooth="yes"/>
      <point x="250" y="1302"/>
      <point x="332" y="1375"/>
      <point x="429" y="1375" type="curve" smooth="yes"/>
      <point x="526" y="1375"/>
      <point x="607" y="1302"/>
      <point x="607" y="1191" type="curve" smooth="yes"/>
      <point x="607" y="1078"/>
      <point x="526" y="1005"/>
    </contour>
  </outline>
</glyph>
<glyph name="plusminus" format="1">
  <advance width="1136"/>
  <unicode hex="00B1"/>
  <outline>
    <contour>
      <point x="105" y="141" type="line"/>
      <point x="105" y="0" type="line"/>
      <point x="1037" y="0" type="line"/>
      <point x="1037" y="141" type="line"/>
    </contour>
    <contour>
      <point x="487" y="1148" type="line"/>
      <point x="487" y="772" type="line"/>
      <point x="120" y="772" type="line"/>
      <point x="120" y="623" type="line"/>
      <point x="487" y="623" type="line"/>
      <point x="487" y="243" type="line"/>
      <point x="643" y="243" type="line"/>
      <point x="643" y="623" type="line"/>
      <point x="1005" y="623" type="line"/>
      <point x="1005" y="772" type="line"/>
      <point x="642" y="772" type="line"/>
      <point x="642" y="1148" type="line"/>
    </contour>
  </outline>
</glyph>
<glyph name="uni00B2" format="1">
  <advance width="797"/>
  <unicode hex="00B2"/>
  <outline>
    <contour>
      <point x="153" y="637" type="line"/>
      <point x="676" y="637" type="line"/>
      <point x="687" y="753" type="line"/>
      <point x="358" y="753" type="line"/>
      <point x="471" y="861"/>
      <point x="467" y="849"/>
      <point x="550" y="932" type="curve" smooth="yes"/>
      <point x="637" y="1021"/>
      <point x="688" y="1115"/>
      <point x="688" y="1229" type="curve" smooth="yes"/>
      <point x="688" y="1402"/>
      <point x="557" y="1496"/>
      <point x="417" y="1496" type="curve" smooth="yes"/>
      <point x="288" y="1496"/>
      <point x="189" y="1452"/>
      <point x="123" y="1364" type="curve"/>
      <point x="189" y="1268" type="line"/>
      <point x="241" y="1334"/>
      <point x="314" y="1371"/>
      <point x="407" y="1371" type="curve" smooth="yes"/>
      <point x="486" y="1371"/>
      <point x="548" y="1313"/>
      <point x="548" y="1226" type="curve" smooth="yes"/>
      <point x="548" y="1172"/>
      <point x="498" y="1099"/>
      <point x="442" y="1031" type="curve"/>
      <point x="299" y="873"/>
      <point x="255" y="856"/>
      <point x="153" y="753" type="curve"/>
    </contour>
  </outline>
</glyph>
<glyph name="periodcentered" format="1">
  <advance width="638"/>
  <unicode hex="00B7"/>
  <outline>
    <contour>
      <point x="366" y="496" type="curve" smooth="yes"/>
      <point x="440" y="496"/>
      <point x="493" y="548"/>
      <point x="493" y="625" type="curve" smooth="yes"/>
      <point x="493" y="701"/>
      <point x="440" y="751"/>
      <point x="366" y="751" type="curve" smooth="yes"/>
      <point x="290" y="751"/>
      <point x="238" y="701"/>
      <point x="238" y="625" type="curve" smooth="yes"/>
      <point x="238" y="548"/>
      <point x="290" y="496"/>
    </contour>
  </outline>
</glyph>
<glyph name="onehalf" format="1">
  <advance width="1810"/>
  <unicode hex="00BD"/>
  <outline>
    <contour>
      <point x="381" y="0" type="line"/>
      <point x="534" y="0" type="line"/>
      <point x="1463" y="1485" type="line"/>
      <point x="1311" y="1485" type="line"/>
    </contour>
    <contour>
      <point x="141" y="595" type="line"/>
      <point x="589" y="595" type="line"/>
      <point x="589" y="716" type="line"/>
      <point x="449" y="716" type="line"/>
      <point x="449" y="1485" type="line"/>
      <point x="326" y="1485" type="line"/>
      <point x="288" y="1453"/>
      <point x="168" y="1395"/>
      <point x="132" y="1378" type="curve"/>
      <point x="132" y="1256" type="line"/>
      <point x="153" y="1264"/>
      <point x="255" y="1308"/>
      <point x="292" y="1330" type="curve"/>
      <point x="292" y="716" type="line"/>
      <point x="141" y="716" type="line"/>
    </contour>
    <contour>
      <point x="1180" y="0" type="line"/>
      <point x="1701" y="0" type="line"/>
      <point x="1707" y="125" type="line"/>
      <point x="1353" y="125" type="line"/>
      <point x="1532" y="290" type="line" smooth="yes"/>
      <point x="1658" y="406"/>
      <point x="1715" y="488"/>
      <point x="1715" y="613" type="curve" smooth="yes"/>
      <point x="1715" y="771"/>
      <point x="1599" y="875"/>
      <point x="1422" y="875" type="curve" smooth="yes"/>
      <point x="1296" y="875"/>
      <point x="1185" y="809"/>
      <point x="1129" y="717" type="curve"/>
      <point x="1210" y="628" type="line"/>
      <point x="1267" y="704"/>
      <point x="1340" y="742"/>
      <point x="1419" y="742" type="curve" smooth="yes"/>
      <point x="1497" y="742"/>
      <point x="1562" y="697"/>
      <point x="1562" y="608" type="curve" smooth="yes"/>
      <point x="1562" y="543"/>
      <point x="1531" y="483"/>
      <point x="1433" y="383" type="curve"/>
      <point x="1171" y="120" type="line"/>
    </contour>
  </outline>
</glyph>
<glyph name="multiply" format="1">
  <advance width="994"/>
  <unicode hex="00D7"/>
  <outline>
    <contour>
      <point x="109" y="929" type="line"/>
      <point x="388" y="626" type="line"/>
      <point x="102" y="319" type="line"/>
      <point x="207" y="208" type="line"/>
      <point x="495" y="513" type="line"/>
      <point x="781" y="209" type="line"/>
      <point x="885" y="321" type="line"/>
      <point x="885" y="321"/>
      <point x="638" y="589"/>
      <point x="602" y="626" type="curve"/>
      <point x="882" y="926" type="line"/>
      <point x="774" y="1037" type="line"/>
      <point x="495" y="738" type="line"/>
      <point x="214" y="1040" type="line"/>
    </contour>
  </outline>
</glyph>
<glyph name="Thorn" format="1">
  <advance width="1262"/>
  <unicode hex="00DE"/>
  <outline>
    <contour>
      <point x="186" y="0" type="line"/>
      <point x="418" y="0" type="line"/>
      <point x="418" y="424" type="line"/>
      <point x="591" y="424" type="line" smooth="yes"/>
      <point x="977" y="424"/>
      <point x="1114" y="565"/>
      <point x="1114" y="834" type="curve" smooth="yes"/>
      <point x="1114" y="1105"/>
      <point x="926" y="1199"/>
      <point x="581" y="1199" type="curve" smooth="yes"/>
      <point x="418" y="1199" type="line"/>
      <point x="418" y="1486" type="line"/>
      <point x="186" y="1486" type="line"/>
    </contour>
    <contour>
      <point x="418" y="1040" type="line"/>
      <point x="586" y="1040" type="line" smooth="yes"/>
      <point x="798" y="1040"/>
      <point x="887" y="986"/>
      <point x="887" y="828" type="curve" smooth="yes"/>
      <point x="887" y="653"/>
      <point x="815" y="585"/>
      <point x="574" y="585" type="curve" smooth="yes"/>
      <point x="418" y="585" type="line"/>
    </contour>
  </outline>
</glyph>
<glyph name="ae" format="1">
  <advance width="1676"/>
  <unicode hex="00E6"/>
  <outline>
    <contour>
      <point x="968" y="1082" type="move" name="top"/>
    </contour>
    <contour>
      <point x="1223" y="951" type="curve" smooth="yes"/>
      <point x="1377" y="951"/>
      <point x="1428" y="864"/>
      <point x="1428" y="760" type="curve" smooth="yes"/>
      <point x="1428" y="677"/>
      <point x="1397" y="601"/>
      <point x="1106" y="601" type="curve" smooth="yes"/>
      <point x="1056" y="601"/>
      <point x="998" y="603"/>
      <point x="931" y="608" type="curve"/>
      <point x="945" y="843"/>
      <point x="1057" y="951"/>
    </contour>
    <contour>
      <point x="740" y="342" type="curve"/>
      <point x="731" y="208"/>
      <point x="620" y="122"/>
      <point x="456" y="122" type="curve" smooth="yes"/>
      <point x="371" y="122"/>
      <point x="265" y="164"/>
      <point x="265" y="296" type="curve" smooth="yes"/>
      <point x="265" y="420"/>
      <point x="325" y="501"/>
      <point x="526" y="501" type="curve" smooth="yes"/>
      <point x="561" y="501"/>
      <point x="669" y="497"/>
      <point x="732" y="490" type="curve"/>
      <point x="732" y="482"/>
      <point x="736" y="352"/>
    </contour>
    <contour>
      <point x="1604" y="764" type="curve" smooth="yes"/>
      <point x="1604" y="942"/>
      <point x="1477" y="1102"/>
      <point x="1219" y="1102" type="curve" smooth="yes"/>
      <point x="1062" y="1102"/>
      <point x="936" y="1043"/>
      <point x="858" y="906" type="curve"/>
      <point x="815" y="1046"/>
      <point x="693" y="1102"/>
      <point x="519" y="1102" type="curve" smooth="yes"/>
      <point x="352" y="1102"/>
      <point x="221" y="1057"/>
      <point x="87" y="973" type="curve"/>
      <point x="156" y="839" type="line"/>
      <point x="280" y="914"/>
      <point x="410" y="942"/>
      <point x="510" y="942" type="curve" smooth="yes"/>
      <point x="657" y="942"/>
      <point x="732" y="882"/>
      <point x="732" y="713" type="curve" smooth="yes"/>
      <point x="732" y="616" type="line"/>
      <point x="665" y="624"/>
      <point x="533" y="627"/>
      <point x="494" y="627" type="curve" smooth="yes"/>
      <point x="203" y="627"/>
      <point x="63" y="504"/>
      <point x="63" y="296" type="curve" smooth="yes"/>
      <point x="63" y="90"/>
      <point x="196" y="-12"/>
      <point x="391" y="-19" type="curve"/>
      <point x="566" y="-19"/>
      <point x="740" y="36"/>
      <point x="828" y="192" type="curve"/>
      <point x="903" y="57"/>
      <point x="1035" y="-20"/>
      <point x="1228" y="-20" type="curve" smooth="yes"/>
      <point x="1386" y="-20"/>
      <point x="1521" y="27"/>
      <point x="1610" y="92" type="curve"/>
      <point x="1557" y="227" type="line"/>
      <point x="1469" y="175"/>
      <point x="1382" y="134"/>
      <point x="1254" y="134" type="curve" smooth="yes"/>
      <point x="1081" y="134"/>
      <point x="948" y="212"/>
      <point x="929" y="470" type="curve"/>
      <point x="999" y="466"/>
      <point x="1066" y="463"/>
      <point x="1129" y="463" type="curve" smooth="yes"/>
      <point x="1405" y="463"/>
      <point x="1604" y="516"/>
    </contour>
  </outline>
</glyph>
<glyph name="uni0237" format="1">
  <advance width="617"/>
  <unicode hex="0237"/>
  <outline>
    <contour>
      <point x="346" y="1081" type="move" name="top"/>
    </contour>
    <contour>
      <point x="232" y="1082" type="line"/>
      <point x="232" y="16" type="line" smooth="yes"/>
      <point x="232" y="-163"/>
      <point x="224" y="-201"/>
      <point x="70" y="-244" type="curve" smooth="yes"/>
      <point x="-1" y="-264" type="line"/>
      <point x="47" y="-430" type="line"/>
      <point x="115" y="-414" type="line"/>
      <point x="347" y="-362"/>
      <point x="449" y="-288"/>
      <point x="449" y="-16" type="curve" smooth="yes"/>
      <point x="449" y="1082" type="line"/>
    </contour>
  </outline>
</glyph>
<glyph name="uni02BC" format="1">
  <advance width="646"/>
  <unicode hex="02BC"/>
  <outline>
    <contour>
      <point x="102" y="1142" type="curve"/>
      <point x="264" y="1142" type="line"/>
      <point x="264" y="1142"/>
      <point x="352" y="1477"/>
      <point x="372" y="1586" type="curve"/>
      <point x="164" y="1586" type="line"/>
      <point x="158" y="1531"/>
      <point x="102" y="1142"/>
    </contour>
  </outline>
</glyph>
<glyph name="uni0307" format="1">
  <advance width="477"/>
  <unicode hex="0307"/>
  <outline>
    <contour>
      <point x="383" y="1453" type="curve" smooth="yes"/>
      <point x="383" y="1534"/>
      <point x="332" y="1583"/>
      <point x="244" y="1583" type="curve" smooth="yes"/>
      <point x="155" y="1583"/>
      <point x="103" y="1534"/>
      <point x="103" y="1453" type="curve" smooth="yes"/>
      <point x="103" y="1369"/>
      <point x="155" y="1319"/>
      <point x="244" y="1319" type="curve" smooth="yes"/>
      <point x="332" y="1319"/>
      <point x="383" y="1369"/>
    </contour>
  </outline>
</glyph>
<glyph name="uni030F" format="1">
  <advance width="934"/>
  <unicode hex="030F"/>
  <outline>
    <contour>
      <point x="503" y="1069" type="move" name="_top"/>
    </contour>
    <contour>
      <point x="586" y="1250" type="line"/>
      <point x="709" y="1250" type="line"/>
      <point x="572" y="1611" type="line"/>
      <point x="385" y="1611" type="line"/>
    </contour>
    <contour>
      <point x="292" y="1250" type="line"/>
      <point x="411" y="1250" type="line"/>
      <point x="263" y="1611" type="line"/>
      <point x="56" y="1611" type="line"/>
    </contour>
  </outline>
</glyph>
<glyph name="uni0312" format="1">
  <advance width="600"/>
  <unicode hex="0312"/>
  <outline>
    <contour>
      <point x="295" y="1069" type="move" name="_top"/>
    </contour>
    <contour>
      <point x="187" y="1302" type="curve"/>
      <point x="182" y="1281" type="line"/>
      <point x="399" y="1281" type="line"/>
      <point x="399" y="1337"/>
      <point x="438" y="1785"/>
      <point x="438" y="1785" type="curve"/>
      <point x="300" y="1785" type="line"/>
      <point x="300" y="1785"/>
      <point x="187" y="1339"/>
    </contour>
  </outline>
</glyph>
<glyph name="uni0326" format="1">
  <advance width="613"/>
  <unicode hex="0326"/>
  <outline>
    <contour>
      <point x="332" y="0" type="move" name="_bot"/>
    </contour>
    <contour>
      <point x="180" y="-529" type="curve"/>
      <point x="322" y="-529" type="line"/>
      <point x="322" y="-529"/>
      <point x="431" y="-162"/>
      <point x="429" y="-128" type="curve"/>
      <point x="234" y="-128" type="line"/>
      <point x="234" y="-184"/>
      <point x="180" y="-529"/>
    </contour>
  </outline>
</glyph>
<glyph name="uni0394" format="1">
  <advance width="1334"/>
  <unicode hex="0394"/>
  <outline>
    <contour>
      <point x="277" y="164" type="line"/>
      <point x="658" y="1291" type="line"/>
      <point x="1046" y="164" type="line"/>
    </contour>
    <contour>
      <point x="38" y="0" type="line"/>
      <point x="1285" y="0" type="line"/>
      <point x="752" y="1495" type="line"/>
      <point x="565" y="1495" type="line"/>
    </contour>
  </outline>
</glyph>
<glyph name="Sigma" format="1">
  <advance width="1091"/>
  <unicode hex="03A3"/>
  <outline>
    <contour>
      <point x="83" y="1456" type="line"/>
      <point x="83" y="1325" type="line"/>
      <point x="569" y="613" type="line"/>
      <point x="66" y="-88" type="line"/>
      <point x="66" y="-214" type="line"/>
      <point x="1057" y="-214" type="line"/>
      <point x="1057" y="-30" type="line"/>
      <point x="334" y="-30" type="line"/>
      <point x="812" y="613" type="line"/>
      <point x="364" y="1280" type="line"/>
      <point x="1014" y="1280" type="line"/>
      <point x="1014" y="1456" type="line"/>
    </contour>
  </outline>
</glyph>
<glyph name="uni03BC" format="1">
  <advance width="1206"/>
  <unicode hex="03BC"/>
  <outline>
    <contour>
      <point x="844" y="266" type="line"/>
      <point x="804" y="214"/>
      <point x="726" y="132"/>
      <point x="573" y="132" type="curve" smooth="yes"/>
      <point x="419" y="132"/>
      <point x="360" y="230"/>
      <point x="360" y="417" type="curve" smooth="yes"/>
      <point x="360" y="1082" type="line"/>
      <point x="143" y="1082" type="line"/>
      <point x="143" y="-296" type="line"/>
      <point x="360" y="-296" type="line"/>
      <point x="360" y="7.44906" type="line"/>
      <point x="408.203" y="-10.797"/>
      <point x="464.262" y="-20"/>
      <point x="528" y="-20" type="curve" smooth="yes"/>
      <point x="689" y="-20"/>
      <point x="793" y="47"/>
      <point x="862" y="139" type="curve"/>
      <point x="873" y="0" type="line"/>
      <point x="1061" y="0" type="line"/>
      <point x="1061" y="1082" type="line"/>
      <point x="844" y="1082" type="line"/>
    </contour>
  </outline>
</glyph>
<glyph name="quotedblleft" format="1">
  <advance width="920"/>
  <unicode hex="201C"/>
  <outline>
    <contour>
      <point x="517" y="1022" type="line"/>
      <point x="732" y="1022" type="line"/>
      <point x="776" y="1513" type="line"/>
      <point x="630" y="1513" type="line"/>
    </contour>
    <contour>
      <point x="150" y="1022" type="line"/>
      <point x="364" y="1022" type="line"/>
      <point x="408" y="1513" type="line"/>
      <point x="262" y="1513" type="line"/>
    </contour>
  </outline>
</glyph>
<glyph name="guilsinglleft" format="1">
  <advance width="687"/>
  <unicode hex="2039"/>
  <outline>
    <contour>
      <point x="400" y="154" type="line"/>
      <point x="570" y="154" type="line"/>
      <point x="298" y="564" type="line"/>
      <point x="577" y="976" type="line"/>
      <point x="405" y="976" type="line"/>
      <point x="120" y="562" type="line"/>
    </contour>
  </outline>
</glyph>
<glyph name="estimated" format="1">
  <advance width="1207"/>
  <unicode hex="212E"/>
  <outline>
    <contour>
      <point x="985" y="597" type="curve"/>
      <point x="326" y="597" type="line"/>
      <point x="341" y="857"/>
      <point x="479" y="1034"/>
      <point x="650" y="1034" type="curve" smooth="yes"/>
      <point x="858" y="1034"/>
      <point x="985" y="831"/>
    </contour>
    <contour>
      <point x="95" y="537" type="curve" smooth="yes"/>
      <point x="95" y="220"/>
      <point x="282" y="-20"/>
      <point x="662" y="-20" type="curve" smooth="yes"/>
      <point x="868" y="-20"/>
      <point x="1002" y="69"/>
      <point x="1101" y="187" type="curve"/>
      <point x="1050" y="238" type="line"/>
      <point x="952" y="133"/>
      <point x="841" y="53"/>
      <point x="662" y="53" type="curve" smooth="yes"/>
      <point x="434" y="53"/>
      <point x="325" y="243"/>
      <point x="324" y="517" type="curve"/>
      <point x="1109" y="517" type="line"/>
      <point x="1109" y="863"/>
      <point x="962" y="1094"/>
      <point x="644" y="1094" type="curve" smooth="yes"/>
      <point x="324" y="1094"/>
      <point x="95" y="855"/>
    </contour>
  </outline>
</glyph>
<glyph name="emptyset" format="1">
  <advance width="1678"/>
  <unicode hex="2205"/>
  <outline>
    <contour>
      <point x="92" y="733" type="curve" smooth="yes"/>
      <point x="92" y="1161.21"/>
      <point x="447.804" y="1493"/>
      <point x="832" y="1493" type="curve" smooth="yes"/>
      <point x="1004.85" y="1493"/>
      <point x="1170.94" y="1426.04"/>
      <point x="1302.25" y="1314.13" type="curve"/>
      <point x="1478.55" y="1512.33" type="line"/>
      <point x="1547.15" y="1458.56" type="line"/>
      <point x="1364.28" y="1254.48" type="line"/>
      <point x="1490.55" y="1119.83"/>
      <point x="1572" y="937.613"/>
      <point x="1572" y="733" type="curve" smooth="yes"/>
      <point x="1572" y="304.791"/>
      <point x="1216.2" y="-27"/>
      <point x="832" y="-27" type="curve" smooth="yes"/>
      <point x="663.134" y="-27"/>
      <point x="500.146" y="37.6316"/>
      <point x="370.945" y="144.152" type="curve"/>
      <point x="178.498" y="-71.3487" type="line"/>
      <point x="116.892" y="-15.5179" type="line"/>
      <point x="309.537" y="201.209" type="line"/>
      <point x="176.692" y="337.968"/>
      <point x="92" y="523.397"/>
    </contour>
    <contour>
      <point x="426.636" y="206.025" type="line"/>
      <point x="542.703" y="111.322"/>
      <point x="684.912" y="57"/>
      <point x="832" y="57" type="curve" smooth="yes"/>
      <point x="1171.79" y="57"/>
      <point x="1489" y="352.196"/>
      <point x="1489" y="733" type="curve" smooth="yes"/>
      <point x="1489" y="912.744"/>
      <point x="1418.03" y="1073.02"/>
      <point x="1308.42" y="1192.47" type="curve"/>
    </contour>
    <contour>
      <point x="365.209" y="263.173" type="curve"/>
      <point x="1246.65" y="1252.25" type="line"/>
      <point x="1130.15" y="1351.27"/>
      <point x="983.104" y="1409"/>
      <point x="832" y="1409" type="curve" smooth="yes"/>
      <point x="492.208" y="1409"/>
      <point x="175" y="1113.8"/>
      <point x="175" y="733" type="curve" smooth="yes"/>
      <point x="175" y="548.228"/>
      <point x="249.495" y="383.534"/>
    </contour>
  </outline>
</glyph>
<glyph name="Delta" format="1">
  <advance width="1293"/>
  <unicode hex="2206"/>
  <outline>
    <contour>
      <point x="678" y="1203" type="line"/>
      <point x="1030" y="175" type="line"/>
      <point x="265" y="175" type="line"/>
      <point x="611" y="1203" type="line"/>
      <point x="644" y="1322" type="line"/>
    </contour>
    <contour>
      <point x="554" y="1551" type="line"/>
      <point x="67" y="86" type="line"/>
      <point x="67" y="0" type="line"/>
      <point x="1228" y="0" type="line"/>
      <point x="1228" y="86" type="line"/>
      <point x="742" y="1551" type="line"/>
    </contour>
  </outline>
</glyph>
<glyph name="summation" format="1">
  <advance width="1091"/>
  <unicode hex="2211"/>
  <outline>
    <contour>
      <point x="83" y="1456" type="line"/>
      <point x="83" y="1325" type="line"/>
      <point x="569" y="613" type="line"/>
      <point x="66" y="-88" type="line"/>
      <point x="66" y="-214" type="line"/>
      <point x="1057" y="-214" type="line"/>
      <point x="1057" y="-30" type="line"/>
      <point x="334" y="-30" type="line"/>
      <point x="812" y="613" type="line"/>
      <point x="364" y="1280" type="line"/>
      <point x="1014" y="1280" type="line"/>
      <point x="1014" y="1456" type="line"/>
    </contour>
  </outline>
</glyph>
<glyph name="integral" format="1">
  <advance width="925"/>
  <unicode hex="222B"/>
  <outline>
    <contour>
      <point x="449" y="1163" type="curve" smooth="yes"/>
      <point x="449" y="-41" type="line" smooth="yes"/>
      <point x="449" y="-210"/>
      <point x="413" y="-294"/>
      <point x="296" y="-294" type="curve" smooth="yes"/>
      <point x="268" y="-294"/>
      <point x="235" y="-289"/>
      <point x="199" y="-280" type="curve"/>
      <point x="199" y="-420" type="line"/>
      <point x="248" y="-431"/>
      <point x="292" y="-436"/>
      <point x="329" y="-436" type="curve" smooth="yes"/>
      <point x="524" y="-436"/>
      <point x="614" y="-290"/>
      <point x="614" y="-33" type="curve" smooth="yes"/>
      <point x="614" y="1172" type="line" smooth="yes"/>
      <point x="614" y="1332"/>
      <point x="640" y="1422"/>
      <point x="755" y="1422" type="curve" smooth="yes"/>
      <point x="781" y="1422"/>
      <point x="810" y="1417"/>
      <point x="843" y="1408" type="curve"/>
      <point x="843" y="1532" type="line"/>
      <point x="792" y="1544"/>
      <point x="747" y="1551"/>
      <point x="708" y="1551" type="curve" smooth="yes"/>
      <point x="523" y="1551"/>
      <point x="449" y="1414"/>
    </contour>
  </outline>
</glyph>
<glyph name="lessequal" format="1">
  <advance width="1192"/>
  <unicode hex="2264"/>
  <outline>
    <contour>
      <point x="124" y="4" type="line"/>
      <point x="1060" y="4" type="line"/>
      <point x="1060" y="143" type="line"/>
      <point x="124" y="144" type="line"/>
    </contour>
    <contour>
      <point x="1037" y="260" type="line"/>
      <point x="1037" y="422" type="line"/>
      <point x="346" y="773" type="line"/>
      <point x="1035" y="1144" type="line"/>
      <point x="1035" y="1307" type="line"/>
      <point x="143" y="820" type="line"/>
      <point x="143" y="725" type="line"/>
    </contour>
  </outline>
</glyph>
<glyph name="greaterequal" format="1">
  <advance width="1192"/>
  <unicode hex="2265"/>
  <outline>
    <contour>
      <point x="131" y="7" type="line"/>
      <point x="1064" y="7" type="line"/>
      <point x="1064" y="147" type="line"/>
      <point x="131" y="146" type="line"/>
    </contour>
    <contour>
      <point x="154" y="230" type="line"/>
      <point x="1049" y="710" type="line"/>
      <point x="1049" y="804" type="line"/>
      <point x="157" y="1308" type="line"/>
      <point x="157" y="1145" type="line"/>
      <point x="858" y="757" type="line"/>
      <point x="154" y="393" type="line"/>
    </contour>
  </outline>
</glyph>
<glyph name="lozenge" format="1">
  <advance width="1179"/>
  <unicode hex="25CA"/>
  <outline>
    <contour>
      <point x="908" y="759" type="curve"/>
      <point x="852" y="654"/>
      <point x="644" y="246"/>
      <point x="587" y="140" type="curve"/>
      <point x="532" y="245"/>
      <point x="328" y="655"/>
      <point x="273" y="761" type="curve"/>
      <point x="329" y="866"/>
      <point x="539" y="1271"/>
      <point x="596" y="1376" type="curve"/>
      <point x="650" y="1270"/>
      <point x="854" y="864"/>
    </contour>
    <contour>
      <point x="538" y="1568" type="line"/>
      <point x="115" y="759" type="line"/>
      <point x="531" y="-47" type="line"/>
      <point x="641" y="-47" type="line"/>
      <point x="1067" y="760" type="line"/>
      <point x="650" y="1568" type="line"/>
    </contour>
  </outline>
</glyph>
<glyph name="slashbar" format="1">
  <advance width="746"/>
  <outline>
    <contour>
      <point x="175" y="478" type="line"/>
      <point x="785" y="784" type="line"/>
      <point x="785" y="939" type="line"/>
      <point x="175" y="633" type="line"/>
    </contour>
  </outline>
</glyph>
